<?xml version="1.0" encoding="iso-8859-1"?>
<!-- Generator: Adobe Illustrator 19.0.0, SVG Export Plug-In . SVG Version: 6.00 Build 0)  -->
<svg version="1.1" id="Capa_1" xmlns="http://www.w3.org/2000/svg" xmlns:xlink="http://www.w3.org/1999/xlink" x="0px" y="0px"
	 viewBox="0 0 512.054 512.054" style="enable-background:new 0 0 512.054 512.054;" xml:space="preserve">
<g>
	<g>
		<g>
			<path style="fill:#2baae1;" d="M257.683,162.16c0-5.706-2.852-11.035-7.6-14.2l-52.879-35.254c-5.237-3.493-11.972-3.819-17.522-0.849
				c-5.55,2.97-9.015,8.754-9.015,15.049v70.508c-0.004,6.296,3.46,12.082,9.011,15.052c5.551,2.971,12.286,2.643,17.523-0.852
				l52.883-35.254C254.831,173.195,257.683,167.866,257.683,162.16z M187.733,197.414v-70.508l52.883,35.254L187.733,197.414z"/>
			<path style="fill:#2baae1;" d="M51.2,409.627h102.4c4.713,0,8.533-3.82,8.533-8.533s-3.821-8.533-8.533-8.533H51.2c-4.713,0-8.533,3.821-8.533,8.533
				S46.487,409.627,51.2,409.627z"/>
			<path style="fill:#2baae1;" d="M512,285.335c0.936-15.133-10.479-28.201-25.6-29.308h-76.8v-230.4c-0.015-14.132-11.468-25.585-25.6-25.6H25.6
				C11.468,0.042,0.015,11.495,0,25.627V418.16c0.015,14.132,11.468,25.585,25.6,25.6h179.2v38.958
				c-0.936,15.133,10.479,28.201,25.6,29.308h256c15.121-1.107,26.536-14.175,25.6-29.308V285.335z M204.8,332.827h-51.2v-8.533
				c-0.009-9.422-7.645-17.057-17.067-17.067h-17.067c-9.422,0.009-17.057,7.645-17.067,17.067v8.533H51.2
				c-4.713,0-8.533,3.821-8.533,8.533s3.82,8.533,8.533,8.533h51.2v8.533c0.009,9.422,7.645,17.057,17.067,17.067h17.067
				c9.422-0.009,17.057-7.645,17.067-17.067v-8.533h51.2v76.8H25.6c-4.71-0.006-8.527-3.823-8.533-8.533V25.627
				c0.006-4.71,3.823-8.527,8.533-8.533H384c4.71,0.006,8.527,3.823,8.533,8.533v230.4h-17.067v-204.8
				c-0.009-9.422-7.645-17.057-17.067-17.067H51.2c-9.422,0.009-17.057,7.645-17.067,17.067v221.867
				c0.009,9.422,7.645,17.057,17.067,17.067h153.6V332.827z M136.54,341.391l0.006,17.035h-17.079v-34.133h17.067l0.006,17.036
				l-0.006,0.031L136.54,341.391z M207.216,273.094H51.2V51.227h307.2v204.8h-128C219.907,256.434,210.722,263.196,207.216,273.094z
				 M494.933,482.719c0,6.521-3.988,12.242-8.533,12.242h-256c-4.546,0-8.533-5.721-8.533-12.242V285.335
				c0-6.521,3.988-12.242,8.533-12.242h256c4.546,0,8.533,5.721,8.533,12.242V482.719z"/>
			<path style="fill:#2baae1;" d="M477.867,452.294v-25.6c-0.009-9.422-7.645-17.057-17.067-17.067h-34.133c-9.422,0.009-17.057,7.645-17.067,17.067v25.6
				h-17.067V366.96c-0.009-9.422-7.645-17.057-17.067-17.067h-34.133c-9.422,0.009-17.057,7.645-17.067,17.067v85.333H307.2V315.76
				c-0.009-9.422-7.645-17.057-17.067-17.067H256c-9.422,0.009-17.057,7.645-17.067,17.067v136.533
				c-4.713,0-8.533,3.821-8.533,8.533s3.82,8.533,8.533,8.533h238.933c4.713,0,8.533-3.82,8.533-8.533
				S482.58,452.294,477.867,452.294z M290.133,452.294H256V315.76h34.133V452.294z M375.467,452.294h-34.133V366.96h34.133V452.294z
				 M460.8,452.294h-34.133v-25.6H460.8V452.294z"/>
		</g>
	</g>
</g>
<g>
</g>
<g>
</g>
<g>
</g>
<g>
</g>
<g>
</g>
<g>
</g>
<g>
</g>
<g>
</g>
<g>
</g>
<g>
</g>
<g>
</g>
<g>
</g>
<g>
</g>
<g>
</g>
<g>
</g>
</svg>
